<svg width="55" height="55" viewBox="0 0 55 55" fill="none" xmlns="http://www.w3.org/2000/svg">
<path d="M24.9792 4.81255C14.4376 5.95838 5.95842 14.4375 4.81258 24.75C3.66675 35.5209 9.85425 45.1459 19.2501 48.8125C19.9376 49.0417 20.6251 48.5834 20.6251 47.6667V44.0001C20.6251 44.0001 19.7084 44.2292 18.5626 44.2292C15.3542 44.2292 13.9792 41.4792 13.7501 39.875C13.5209 38.9584 13.0626 38.2709 12.3751 37.5834C11.6876 37.3542 11.4584 37.3542 11.4584 37.1251C11.4584 36.6667 12.1459 36.6667 12.3751 36.6667C13.7501 36.6667 14.8959 38.2709 15.3542 38.9584C16.5001 40.7917 17.8751 41.25 18.5626 41.25C19.4792 41.25 20.1667 41.0209 20.6251 40.7917C20.8542 39.1875 21.5417 37.5834 22.9167 36.6667C17.6459 35.5209 13.7501 32.5417 13.7501 27.5C13.7501 24.9792 14.8959 22.4584 16.5001 20.625C16.2709 20.1667 16.0417 19.0209 16.0417 17.4167C16.0417 16.5 16.0417 15.125 16.7292 13.75C16.7292 13.75 19.9376 13.7501 23.1459 16.7292C24.2918 16.2709 25.8959 16.0417 27.5001 16.0417C29.1042 16.0417 30.7084 16.2709 32.0834 16.7292C35.0626 13.7501 38.5001 13.75 38.5001 13.75C38.9584 15.125 38.9584 16.5 38.9584 17.4167C38.9584 19.25 38.7292 20.1667 38.5001 20.625C40.1042 22.4584 41.2501 24.75 41.2501 27.5C41.2501 32.5417 37.3543 35.5209 32.0834 36.6667C33.4584 37.8125 34.3751 39.875 34.3751 41.9375V47.8959C34.3751 48.5834 35.0626 49.2709 35.9792 49.0417C44.4584 45.6042 50.4168 37.3542 50.4168 27.7292C50.4168 13.9792 38.7292 3.20838 24.9792 4.81255Z" fill="white"/>
</svg>
